<svg xmlns="http://www.w3.org/2000/svg" viewBox="0 0 40 40" width="32" height="32" aria-hidden="true">
  <path d="M37.0,20.0L36.9,21.5L36.6,23.0L36.2,24.4L35.7,25.8L35.0,27.2L34.3,28.5L33.4,29.7L32.4,30.8L31.4,31.8L30.2,32.7L29.0,33.5L27.7,34.2L26.4,34.7L25.1,35.2L23.7,35.5L22.3,35.7L20.8,35.8L19.4,35.7L18.0,35.5L16.7,35.2L15.4,34.8L14.1,34.3L12.9,33.6L11.7,32.9L10.7,32.0L9.7,31.1L8.8,30.1L8.0,29.0L7.3,27.8L6.7,26.6L6.2,25.4L5.9,24.1L5.6,22.8L5.5,21.5L5.5,20.2L5.6,19.0L5.8,17.7L6.2,16.5L6.6,15.3L7.2,14.1L7.8,13.0L8.5,12.0L9.3,11.1L10.2,10.2L11.2,9.4L12.2,8.8L13.3,8.2L14.4,7.7L15.5,7.3L16.7,7.0L17.9,6.9L19.1,6.8L20.3,6.8L21.4,7.0L22.6,7.2L23.7,7.6L24.7,8.0L25.7,8.6L26.7,9.2L27.6,9.9L28.4,10.7L29.1,11.5L29.8,12.4L30.4,13.3L30.9,14.3L31.3,15.4L31.6,16.4L31.8,17.5L31.9,18.5L31.9,19.6L31.8,20.7L31.6,21.7L31.3,22.7L31.0,23.7L30.5,24.6L30.0,25.5L29.4,26.3L28.7,27.1L28.0,27.8L27.3,28.4L26.4,28.9L25.6,29.4L24.7,29.8L23.7,30.1L22.8,30.3L21.9,30.5L20.9,30.5L20.0,30.5L19.1,30.3L18.1,30.1L17.3,29.9L16.4,29.5L15.6,29.1L14.9,28.6L14.2,28.0L13.5,27.4L13.0,26.8L12.5,26.0L12.0,25.3L11.6,24.5L11.4,23.7L11.1,22.9L11.0,22.1L10.9,21.3L10.9,20.5L11.0,19.7L11.1,18.9L11.4,18.1L11.6,17.4L12.0,16.7L12.4,16.0L12.8,15.4L13.4,14.8L13.9,14.3L14.5,13.8L15.1,13.4L15.8,13.1L16.4,12.8L17.1,12.6L17.8,12.5" stroke="#b8881e" stroke-width="0.8" fill="none" stroke-linecap="round" opacity="0.45" stroke-dasharray="2 2"/>
  <path d="M12.1,16.4L12.3,16.1L12.5,15.8L12.7,15.6L12.9,15.3L13.2,15.0L13.4,14.8L13.7,14.5L13.9,14.3L14.2,14.1L14.5,13.9L14.7,13.7L15.0,13.5L15.3,13.3L15.6,13.2L15.9,13.0L16.2,12.9L16.6,12.8L16.9,12.7L17.2,12.6L17.5,12.5L17.8,12.5L18.2,12.4L18.5,12.4L18.8,12.4L19.1,12.4L19.4,12.4L19.8,12.4L20.1,12.4L20.4,12.5L20.7,12.6L21.0,12.6L21.3,12.7L21.6,12.8L21.9,12.9L22.1,13.0L22.4,13.2L22.7,13.3L22.9,13.5L23.2,13.6L23.4,13.8L23.7,14.0L23.9,14.2L24.1,14.4L24.3,14.6L24.5,14.8L24.7,15.0L24.8,15.2L25.0,15.5L25.2,15.7L25.3,15.9L25.4,16.2L25.5,16.4L25.6,16.7L25.7,16.9L25.8,17.2L25.9,17.5L26.0,17.7L26.0,18.0L26.0,18.2L26.1,18.5L26.1,18.8L26.1,19.0L26.1,19.3L26.1,19.5L26.0,19.8L26.0,20.0L26.0,20.3L25.9,20.5L25.8,20.8L25.8,21.0L25.7,21.2L25.6,21.4L25.5,21.7L25.3,21.9L25.2,22.1L25.1,22.3L25.0,22.5L24.8,22.6L24.7,22.8L24.5,23.0L24.3,23.1L24.2,23.3L24.0,23.4L23.8,23.6L23.6,23.7L23.5,23.8L23.3,23.9L23.1,24.0L22.9,24.1L22.7,24.2L22.5,24.2L22.3,24.3L22.1,24.4L21.9,24.4L21.7,24.4L21.5,24.5L21.3,24.5L21.1,24.5L20.9,24.5L20.7,24.5L20.5,24.4L20.3,24.4L20.2,24.4L20.0,24.3L19.8,24.3L19.6,24.2L19.5,24.2L19.3,24.1L19.1,24.0L19.0,23.9L18.8,23.8L18.7,23.8L18.6,23.7L18.4,23.5L18.3,23.4L18.2,23.3L18.1,23.2L18.0,23.1L17.9,23.0L17.8,22.8L17.7,22.7L17.6,22.6L17.6,22.4L17.5,22.3L17.4,22.2L17.4,22.0L17.3,21.9L17.3,21.7L17.3,21.6L17.3,21.5L17.3,21.3L17.2,21.2L17.2,21.1L17.2,20.9L17.3,20.8L17.3,20.7L17.3,20.6L17.3,20.4L17.4,20.3L17.4,20.2L17.5,20.1L17.5,20.0L17.6,19.9L17.6,19.8L17.7,19.7L17.8,19.6L17.8,19.5L17.9,19.5L18.0,19.4L18.0,19.3L18.1,19.3L18.2,19.2L18.3,19.2L18.4,19.1L18.5,19.1L18.6,19.1L18.6,19.0L18.7,19.0L18.8,19.0L18.9,19.0L19.0,19.0L19.1,19.0L19.2,19.0L19.2,19.0L19.3,19.0L19.4,19.1L19.5,19.1L19.5,19.1L19.6,19.2L19.7,19.2L19.7,19.3L19.8,19.3L19.8,19.4L19.9,19.4L19.9,19.5L19.9,19.6L20.0,19.7L20.0,19.8L20.0,19.9L20.0,20.0" stroke="#b8881e" stroke-width="1.2" fill="none" stroke-linecap="round" stroke-linejoin="round"/>
  <circle cx="20" cy="20" r="1.9" fill="#b8881e"/>
  <circle cx="20" cy="20" r="0.85" fill="#d4a432"/>
</svg>